<?xml version="1.0" standalone="no"?>
<!DOCTYPE svg PUBLIC "-//W3C//DTD SVG 20010904//EN"
 "http://www.w3.org/TR/2001/REC-SVG-20010904/DTD/svg10.dtd">
<svg version="1.0" xmlns="http://www.w3.org/2000/svg"
 width="100.000000pt" height="61.000000pt" viewBox="0 0 100.000000 61.000000"
 preserveAspectRatio="xMidYMid meet">

<g transform="translate(0.000000,61.000000) scale(0.100000,-0.100000)"
fill="#000000" stroke="none">
<path d="M220 570 c0 -25 -84 -100 -136 -121 l-54 -23 0 -153 c0 -146 1 -153
20 -153 42 0 149 -44 196 -79 l49 -38 67 33 c112 56 206 77 338 77 99 0 164
-8 231 -29 14 -4 14 2 -3 53 -32 93 -23 172 29 261 l41 72 -131 -6 c-143 -7
-340 8 -435 32 -31 8 -90 30 -131 49 -82 39 -81 39 -81 25z"/>
</g>
</svg>
